<?xml version="1.0" encoding="UTF-8" standalone="no"?>
<!-- Created with Inkscape (http://www.inkscape.org/) -->

<svg
   width="32"
   height="32"
   viewBox="0 0 8.4666665 8.4666669"
   version="1.1"
   id="svg5"
   inkscape:version="1.1 (c68e22c387, 2021-05-23)"
   sodipodi:docname="clock.svg"
   inkscape:export-filename="C:\Users\kilia\Documents\GitHub\hockeygameclock\hockeygameclock\frontend\icons\clock.png"
   inkscape:export-xdpi="96"
   inkscape:export-ydpi="96"
   xmlns:inkscape="http://www.inkscape.org/namespaces/inkscape"
   xmlns:sodipodi="http://sodipodi.sourceforge.net/DTD/sodipodi-0.dtd"
   xmlns="http://www.w3.org/2000/svg"
   xmlns:svg="http://www.w3.org/2000/svg">
  <sodipodi:namedview
     id="namedview7"
     pagecolor="#ffffff"
     bordercolor="#666666"
     borderopacity="1.0"
     inkscape:pageshadow="2"
     inkscape:pageopacity="0.0"
     inkscape:pagecheckerboard="0"
     inkscape:document-units="px"
     showgrid="false"
     units="px"
     inkscape:zoom="5.9295174"
     inkscape:cx="61.640767"
     inkscape:cy="3.6259275"
     inkscape:window-width="1920"
     inkscape:window-height="1017"
     inkscape:window-x="1912"
     inkscape:window-y="-8"
     inkscape:window-maximized="1"
     inkscape:current-layer="layer1" />
  <defs
     id="defs2" />
  <g
     inkscape:label="Ebene 1"
     inkscape:groupmode="layer"
     id="layer1">
    <g
       id="g1680"
       transform="matrix(0.05862327,0,0,0.05862327,-2.5981043,3.0881305)">
      <path
         style="fill:#e1e1e1;fill-opacity:1;stroke-width:0.282222"
         d="M 112.0147,73.407451 C 96.315409,71.854095 82.561804,62.125364 75.770592,47.769867 73.573679,43.125954 72.27511,38.415727 71.711748,33.04744 l -0.229533,-2.187222 h 4.846647 4.846647 l 0.744042,-0.744039 c 0.964319,-0.964319 0.964319,-2.063157 0,-3.027477 l -0.744042,-0.744039 h -4.846647 -4.846647 l 0.229533,-2.187222 C 73.384257,8.2200875 82.9676,-5.347214 97.362829,-12.157222 c 4.643911,-2.196914 9.354141,-3.495483 14.722431,-4.058844 l 2.18722,-0.229534 v 4.846647 4.846647 l 0.74404,0.744042 c 0.96432,0.96432 2.06315,0.96432 3.02747,0 l 0.74404,-0.744042 v -4.846647 -4.846647 l 2.18722,0.229534 c 10.82654,1.136165 20.25677,5.687241 27.75709,13.395714 7.3357,7.539284 11.51413,16.474052 12.61642,26.977793 l 0.22954,2.187222 h -4.84665 -4.84665 l -0.74404,0.744039 c -0.44015,0.440154 -0.74404,1.058407 -0.74404,1.513739 0,0.455331 0.30389,1.073584 0.74404,1.513738 l 0.74404,0.744039 h 4.84665 4.84665 l -0.22954,2.187222 c -1.67251,15.937354 -11.25585,29.504656 -25.65108,36.314663 -4.64391,2.196914 -9.35414,3.495483 -14.72243,4.058844 l -2.18722,0.229534 v -4.846647 -4.846647 l -0.74404,-0.744042 c -0.96188,-0.961881 -2.06326,-0.964207 -3.02109,-0.0064 -0.73099,0.730992 -0.73835,0.781377 -0.8146,5.573888 l -0.0769,4.836228 z m 7.05555,-38.618956 c 0.6985,-0.316188 1.63532,-0.916647 2.08181,-1.334358 1.0008,-0.936284 2.14507,-3.292213 2.14877,-4.424099 0.002,-0.732287 1.60498,-2.447755 12.25973,-13.123332 13.27003,-13.29596 12.92774,-12.871261 12.44547,-15.441986 -0.26063,-1.389275 -1.94878,-3.077427 -3.33805,-3.338056 -2.57073,-0.48227 -2.14603,-0.824555 -15.44199,12.4454683 -10.67558,10.6547547 -12.39105,12.2573367 -13.12333,12.2597327 -0.46332,0.0014 -1.4774,0.302954 -2.25352,0.66986 -5.39247,2.549296 -5.39247,9.652135 0,12.201431 1.74494,0.824916 3.52307,0.853979 5.22111,0.08534 z"
         id="path894"
         sodipodi:nodetypes="ssscccsscccssscccsscccssscccssscccssscccssccssscssssccsss" />
      <path
         style="fill:#e1e1e1;fill-opacity:1;stroke-width:0.282222"
         d="M 110.88581,91.507121 C 101.63565,90.694707 91.244204,87.216496 83.25337,82.258021 60.74268,68.289687 49.324451,41.577152 54.76915,15.620219 56.532455,7.2138807 60.28996,-1.329827 65.195025,-8.085834 l 1.331417,-1.833832 -2.594874,-2.681723 c -2.967001,-3.066305 -3.650426,-4.276175 -3.665852,-6.489663 -0.01425,-2.045705 0.506662,-3.491334 1.759159,-4.881942 1.376776,-1.52859 3.119239,-2.276031 5.268951,-2.260151 2.330323,0.01722 3.683625,0.76465 6.677086,3.687789 l 2.455099,2.397424 1.778234,-1.392863 c 8.669358,-6.790568 20.403314,-11.426338 32.046565,-12.660734 l 1.76389,-0.187004 v -4.628956 -4.628955 h -4.87909 c -4.49854,0 -4.9773,-0.04953 -6.13833,-0.635 -1.355526,-0.683551 -2.529246,-2.48436 -2.529246,-3.880556 0,-1.396195 1.17372,-3.197004 2.529246,-3.880555 1.25637,-0.63355 1.29184,-0.635 15.53297,-0.635 14.24114,0 14.27661,0.0014 15.53298,0.635 1.35553,0.683551 2.52925,2.48436 2.52925,3.880555 0,1.396196 -1.17372,3.197005 -2.52925,3.880556 -1.16103,0.585472 -1.63979,0.635 -6.13833,0.635 h -4.87909 v 4.634203 4.634203 l 1.905,0.195369 c 2.81327,0.288517 7.47835,1.170526 10.36897,1.960423 7.61838,2.081814 15.66408,6.107603 21.7983,10.907114 0.96681,0.756445 1.84792,1.375353 1.95802,1.375353 0.1101,0 1.35108,-1.125951 2.75772,-2.502112 3.09748,-3.030344 4.43243,-3.77586 6.77953,-3.786093 4.09204,-0.01784 7.04038,2.92833 7.01027,7.005106 -0.0175,2.377759 -0.76743,3.690749 -3.98009,6.969017 l -2.69205,2.747033 1.87664,2.791928 c 12.6912,18.881086 14.32252,42.979648 4.27891,63.209714 -3.45835,6.965885 -7.84122,12.943106 -13.16963,17.960339 -13.16079,12.392202 -31.10029,18.628571 -49.05159,17.051968 z m 12.90312,-9.162322 c 12.51161,-1.827146 23.06085,-7.187522 31.7155,-16.115565 9.86937,-10.181138 15.21249,-23.396887 15.21249,-37.626793 0,-18.432215 -9.17867,-35.347101 -24.69444,-45.50808 -12.33723,-8.079411 -28.07207,-10.697225 -42.61556,-7.089972 -19.392561,4.809978 -34.664738,20.082156 -39.474717,39.474719 -3.445085,13.889673 -1.231103,28.898798 6.038019,40.933198 7.400567,12.252014 19.369744,21.207571 33.013368,24.701203 6.43264,1.647161 14.63399,2.13253 20.80534,1.23129 z"
         id="path892"
         sodipodi:nodetypes="sssscssssscsscccssssscssscccsssssscscsssssssssssss" />
    </g>
  </g>
</svg>
