<?xml version="1.0" encoding="UTF-8" standalone="no"?>
<!-- Created with Inkscape (http://www.inkscape.org/) -->

<svg
   width="32"
   height="32"
   viewBox="0 0 8.4666659 8.4666664"
   version="1.1"
   id="svg5"
   inkscape:version="1.1 (c68e22c387, 2021-05-23)"
   sodipodi:docname="settings.svg"
   inkscape:export-filename="C:\Users\kilia\Documents\GitHub\hockeygameclock\hockeygameclock\frontend\icons\settings.png"
   inkscape:export-xdpi="96.000008"
   inkscape:export-ydpi="96.000008"
   xmlns:inkscape="http://www.inkscape.org/namespaces/inkscape"
   xmlns:sodipodi="http://sodipodi.sourceforge.net/DTD/sodipodi-0.dtd"
   xmlns="http://www.w3.org/2000/svg"
   xmlns:svg="http://www.w3.org/2000/svg">
  <sodipodi:namedview
     id="namedview7"
     pagecolor="#ffffff"
     bordercolor="#666666"
     borderopacity="1.0"
     inkscape:pageshadow="2"
     inkscape:pageopacity="0.0"
     inkscape:pagecheckerboard="0"
     inkscape:document-units="px"
     showgrid="false"
     units="px"
     inkscape:snap-page="true"
     inkscape:snap-bbox="true"
     inkscape:bbox-paths="true"
     inkscape:bbox-nodes="true"
     inkscape:snap-bbox-edge-midpoints="true"
     inkscape:zoom="16"
     inkscape:cx="13.78125"
     inkscape:cy="20.28125"
     inkscape:window-width="1920"
     inkscape:window-height="1017"
     inkscape:window-x="-8"
     inkscape:window-y="-8"
     inkscape:window-maximized="1"
     inkscape:current-layer="layer1" />
  <defs
     id="defs2" />
  <g
     inkscape:label="Ebene 1"
     inkscape:groupmode="layer"
     id="layer1">
    <path
       style="fill:#e1e1e1;stroke-width:0.0165583;fill-opacity:1"
       d="m 3.7121444,8.447411 c -0.139445,-0.04455 -0.251475,-0.140492 -0.319263,-0.273405 -0.01928,-0.03779 -0.05327,-0.188514 -0.083,-0.368013 -0.0277,-0.167202 -0.05372,-0.318909 -0.05783,-0.337125 -0.0053,-0.02366 -0.03958,-0.04435 -0.119912,-0.07243 -0.06184,-0.02162 -0.188104,-0.07284 -0.280577,-0.113815 L 2.6834294,7.208113 2.4251564,7.393279 C 2.1026674,7.624486 2.0485934,7.650273 1.8856014,7.65058 1.6758304,7.650952 1.6188844,7.61438 1.2470534,7.240215 0.88860939,6.879522 0.85539139,6.829724 0.84531539,6.637946 c -0.0091,-0.17356 0.02056,-0.24153 0.23740101,-0.543612 0.104609,-0.145733 0.190223,-0.270145 0.190253,-0.276472 3e-5,-0.0063 -0.02672,-0.06967 -0.05944,-0.140765 -0.03272,-0.07109 -0.08525,-0.196084 -0.116719,-0.277754 -0.03147,-0.08167 -0.05946,-0.150732 -0.0622,-0.15347 -0.0027,-0.0027 -0.15282801,-0.03077 -0.33353601,-0.0623 -0.367909,-0.06418 -0.46318905,-0.0997 -0.56252805,-0.209687 -0.126859,-0.140456 -0.13144,-0.16349 -0.137154,-0.689571 -0.0059,-0.542955 0.0023,-0.59373 0.118243,-0.736049 0.108376,-0.132983 0.19423705,-0.168185 0.55736905,-0.228512 0.168459,-0.02799 0.316935,-0.05653 0.32994701,-0.06343 0.01301,-0.0069 0.04029,-0.06187 0.06062,-0.122157 0.02033,-0.06029 0.07162,-0.18728 0.113985,-0.282207 L 1.2585764,2.679365 1.0687384,2.412632 C 0.84675039,2.100726 0.81727039,2.035881 0.81890539,1.863096 c 0.0019,-0.196597 0.03744,-0.250626 0.41027101,-0.623033 0.182724,-0.182516 0.346152,-0.331391 0.385784,-0.351432 0.1384,-0.06998 0.348273,-0.07314 0.476956,-0.0072 0.02767,0.01418 0.164385,0.107941 0.303819,0.208351 l 0.253515,0.182564 0.118998,-0.05453 c 0.06545,-0.02999 0.192675,-0.08318 0.282726,-0.118203 0.09005,-0.03502 0.167416,-0.06736 0.171922,-0.07187 0.0045,-0.0045 0.03315,-0.154283 0.06366,-0.332833 0.03051,-0.17855 0.06964,-0.356696 0.08697,-0.395879 0.04577,-0.103489 0.140654,-0.200366 0.247808,-0.253001 L 3.7150544,0 h 0.504962 0.504962 l 0.09372,0.04603 c 0.107076,0.0526 0.202037,0.1495 0.247708,0.252775 0.01727,0.03906 0.05407,0.207647 0.08178,0.374641 0.02771,0.166993 0.05575,0.313794 0.06232,0.326224 0.0066,0.01243 0.07882,0.04654 0.160556,0.0758 0.08174,0.02926 0.213541,0.08369 0.292894,0.120957 l 0.144281,0.06776 0.244788,-0.175316 c 0.341697,-0.244721 0.375711,-0.260842 0.550354,-0.260842 0.213822,0 0.246563,0.02115 0.639832,0.41333 0.30219,0.301352 0.336226,0.341042 0.369822,0.431261 0.04546,0.12206 0.04261,0.310888 -0.0062,0.41108 -0.01696,0.03482 -0.111684,0.175883 -0.210497,0.313476 -0.09881,0.137593 -0.179659,0.260199 -0.179659,0.272459 0,0.01226 0.02544,0.07282 0.05654,0.134582 0.03109,0.06176 0.0807,0.181508 0.11023,0.266103 0.03797,0.108776 0.06384,0.158155 0.08833,0.168649 0.01905,0.0082 0.168062,0.03698 0.331136,0.06404 0.3344465,0.0555 0.4331005,0.09301 0.5316915,0.202164 0.03371,0.03733 0.07722,0.10231 0.09668,0.144413 0.0337,0.0729 0.03539,0.100649 0.03539,0.581648 0,0.480998 -0.0017,0.50875 -0.03539,0.581648 -0.01946,0.0421 -0.06297,0.107088 -0.09668,0.144412 -0.09933,0.109974 -0.192815,0.144586 -0.5596915,0.207217 -0.180137,0.03075 -0.329791,0.05878 -0.332565,0.06228 -0.0028,0.0035 -0.03134,0.07716 -0.06349,0.163689 -0.03214,0.08653 -0.08483,0.214016 -0.117094,0.283305 l -0.05865,0.125979 0.197242,0.277426 c 0.221738,0.311879 0.256427,0.392295 0.242749,0.562742 -0.01401,0.174563 -0.06426,0.247392 -0.407708,0.590937 -0.376143,0.376244 -0.418972,0.403251 -0.639572,0.403301 -0.180446,3.3e-5 -0.184301,-0.0018 -0.535959,-0.253468 L 5.8053594,7.19855 5.6542404,7.2685 c -0.08312,0.03847 -0.212906,0.09182 -0.288423,0.118553 -0.101376,0.03589 -0.139203,0.05728 -0.144563,0.08175 -0.004,0.01823 -0.02986,0.167292 -0.05749,0.331242 -0.05657,0.3357061 -0.09344,0.432832 -0.201324,0.5303241 -0.141358,0.1277419 -0.161654,0.1316689 -0.701029,0.1355989 -0.362688,0.0026 -0.497039,-0.0019 -0.549264,-0.01859 z m 0.937706,-0.494146 c 0.0084,-0.02049 0.04238,-0.200966 0.07558,-0.401049 0.0332,-0.200084 0.07013,-0.382682 0.08207,-0.405774 0.0382,-0.07389 0.08169,-0.09879 0.291478,-0.1669 0.113008,-0.03669 0.310297,-0.118588 0.438422,-0.182003 0.130223,-0.06445 0.254625,-0.1153 0.282093,-0.1153 0.0715,0 0.130996,0.03499 0.45799,0.269366 0.161829,0.11599 0.307194,0.210892 0.323032,0.210892 0.03701,0 0.566494,-0.529487 0.566494,-0.566498 0,-0.01535 -0.100634,-0.169566 -0.223632,-0.342699 -0.229239,-0.322681 -0.256495,-0.369872 -0.256495,-0.4441 0,-0.02357 0.05173,-0.14791 0.114956,-0.276312 0.06322,-0.128403 0.145493,-0.327384 0.182817,-0.44218 0.09964,-0.306448 0.07746,-0.292743 0.612814,-0.378656 0.177565,-0.02849 0.3396085,-0.05874 0.3600965,-0.06721 0.0372,-0.01538 0.03725,-0.01602 0.03725,-0.420178 V 3.81989 l -0.04553,-0.0091 C 7.9242459,3.80579 7.7435754,3.7745 7.5477994,3.7413 7.3520224,3.7081 7.1731994,3.67138 7.1504134,3.65972 7.0772434,3.62226 7.0541334,3.58067 6.9771944,3.347967 6.9356744,3.222395 6.8533704,3.024088 6.7942934,2.907285 6.7352134,2.790481 6.6868804,2.675925 6.6868804,2.652716 c 0,-0.074 0.02861,-0.123257 0.256713,-0.441939 0.122878,-0.171675 0.223414,-0.3258 0.223414,-0.342499 0,-0.03754 -0.52785,-0.568205 -0.565187,-0.568205 -0.01471,0 -0.160063,0.09581 -0.323005,0.2129 -0.334105,0.240098 -0.380315,0.267358 -0.453207,0.267358 -0.03031,0 -0.148684,-0.04746 -0.286415,-0.114832 -0.129112,-0.06316 -0.309252,-0.138351 -0.40031,-0.167097 -0.235241,-0.07426 -0.287216,-0.0986 -0.325525,-0.152412 -0.02492,-0.035 -0.05089,-0.14669 -0.09848,-0.42348 -0.03555,-0.206769 -0.06845,-0.392712 -0.07311,-0.413205 l -0.0085,-0.03726 h -0.404333 c -0.235314,0 -0.408364,0.0065 -0.413978,0.01561 -0.0053,0.0086 -0.0398,0.193012 -0.07666,0.409834 -0.04549,0.267572 -0.07736,0.41096 -0.09921,0.446322 -0.0379,0.06133 -0.07839,0.0818 -0.321401,0.162446 -0.100165,0.03324 -0.275246,0.107282 -0.389069,0.164537 -0.113824,0.05726 -0.22714,0.109117 -0.251815,0.115247 -0.07668,0.01905 -0.159651,-0.02517 -0.486711,-0.259406 -0.17399,-0.124609 -0.322499,-0.226562 -0.33002,-0.226562 -0.02335,0 -0.570511,0.552202 -0.570511,0.57577 0,0.01225 0.10189,0.165303 0.226422,0.340129 0.124532,0.174826 0.236353,0.346112 0.24849,0.380635 0.02851,0.08109 0.01939,0.113807 -0.09561,0.342966 -0.05257,0.104746 -0.13002,0.294779 -0.17212,0.422295 -0.07993,0.242107 -0.122188,0.310437 -0.204857,0.331267 -0.02404,0.0061 -0.209382,0.03969 -0.41186401,0.07475 -0.202482,0.03505 -0.3757,0.0684 -0.38493,0.07411 -0.01058,0.0065 -0.01678,0.156968 -0.01678,0.407206 0,0.395868 9.3e-5,0.39687 0.03725,0.412426 0.02049,0.0086 0.211621,0.04509 0.42474,0.08114 0.47736401,0.08075 0.45945001,0.06858 0.56357701,0.38281 0.03773,0.113854 0.121168,0.312653 0.185422,0.441774 0.105601,0.212213 0.115738,0.241192 0.105525,0.301658 -0.0083,0.04923 -0.06778,0.145921 -0.225162,0.366127 -0.117624,0.164578 -0.226098,0.317912 -0.241051,0.34074 l -0.02719,0.04151 0.279026,0.280855 c 0.153464,0.15447 0.291237,0.280855 0.306163,0.280855 0.01493,0 0.138142,-0.07952 0.273812,-0.176705 0.378975,-0.271478 0.432561,-0.303553 0.507141,-0.303553 0.04621,0 0.127819,0.03072 0.283026,0.106531 0.119949,0.05859 0.31055,0.136767 0.423557,0.173723 0.211099,0.06903 0.25324,0.09342 0.292453,0.169275 0.01247,0.02413 0.04934,0.206727 0.08191,0.405774 0.03258,0.199046 0.06615,0.378669 0.07461,0.399163 0.01534,0.03718 0.01622,0.03726 0.41343,0.03726 0.397252,0 0.398087,-6.2e-5 0.413276,-0.03726 z M 3.9109214,6.02945 c -0.77054,-0.146632 -1.368052,-0.765022 -1.479769,-1.531475 -0.02488,-0.170726 -0.01168,-0.5291 0.02508,-0.68072 0.169872,-0.700648 0.716044,-1.230402 1.418005,-1.37538 0.147754,-0.03052 0.208043,-0.03429 0.428562,-0.02683 0.185081,0.0063 0.291817,0.01822 0.382877,0.04288 0.659242,0.178561 1.145242,0.664693 1.323755,1.324113 0.02466,0.09108 0.03661,0.197849 0.04287,0.38298 0.0075,0.22058 0.0037,0.280884 -0.02682,0.428678 -0.144955,0.702225 -0.671814,1.245843 -1.375008,1.418744 -0.149094,0.03666 -0.583747,0.04665 -0.739556,0.017 z m 0.648497,-0.491022 c 0.269003,-0.06402 0.548903,-0.23917 0.720035,-0.450563 0.504698,-0.623433 0.37095,-1.529891 -0.291992,-1.97893 -0.475876,-0.322332 -1.107975,-0.300983 -1.573072,0.05313 -0.228418,0.173912 -0.412628,0.456258 -0.486889,0.746275 -0.04677,0.182645 -0.04674,0.463431 6.9e-5,0.645864 0.186184,0.725682 0.902613,1.157786 1.631851,0.984226 z"
       id="path836" />
  </g>
</svg>
