<?xml version="1.0" encoding="UTF-8" standalone="no"?>
<!-- Created with Inkscape (http://www.inkscape.org/) -->

<svg
   width="256"
   height="256"
   viewBox="0 0 67.733331 67.733331"
   version="1.1"
   id="svg5"
   inkscape:version="1.1 (c68e22c387, 2021-05-23)"
   sodipodi:docname="Logo.svg"
   inkscape:export-filename="C:\Users\kilia\Documents\GitHub\hockeyclock\Logo.png"
   inkscape:export-xdpi="96"
   inkscape:export-ydpi="96"
   xmlns:inkscape="http://www.inkscape.org/namespaces/inkscape"
   xmlns:sodipodi="http://sodipodi.sourceforge.net/DTD/sodipodi-0.dtd"
   xmlns="http://www.w3.org/2000/svg"
   xmlns:svg="http://www.w3.org/2000/svg">
  <sodipodi:namedview
     id="namedview7"
     pagecolor="#ffffff"
     bordercolor="#666666"
     borderopacity="1.0"
     inkscape:pageshadow="2"
     inkscape:pageopacity="0.0"
     inkscape:pagecheckerboard="0"
     inkscape:document-units="px"
     showgrid="false"
     units="px"
     inkscape:snap-bbox="true"
     inkscape:snap-page="true"
     inkscape:zoom="2.56"
     inkscape:cx="111.32813"
     inkscape:cy="109.17969"
     inkscape:window-width="1920"
     inkscape:window-height="1017"
     inkscape:window-x="1912"
     inkscape:window-y="-8"
     inkscape:window-maximized="1"
     inkscape:current-layer="layer1"
     inkscape:snap-smooth-nodes="true"
     inkscape:snap-intersection-paths="true"
     inkscape:object-paths="true" />
  <defs
     id="defs2" />
  <g
     inkscape:label="Ebene 1"
     inkscape:groupmode="layer"
     id="layer1">
    <path
       id="rect31"
       style="font-variation-settings:'wght' 700;fill:#0066ff;stroke-width:2.32243;stroke-linecap:round;stroke-linejoin:round"
       d="m 16.933332,0 c 8.466666,0 8.466666,0 8.466666,0 h 8.466666 8.466667 c 0,0 0,0 8.466666,0 8.466666,0 16.933333,8.466666 16.933333,16.933332 0,8.466666 0,8.466666 0,8.466666 v 8.466666 8.466667 c 0,0 0,0 0,8.466666 0,8.466666 -8.466667,16.933333 -16.933333,16.933333 -8.466666,0 -8.466666,0 -8.466666,0 h -8.466667 -8.466666 c 0,0 0,0 -8.466666,0 C 8.466666,67.73333 0,59.266663 0,50.799997 0,42.333331 0,42.333331 0,42.333331 v -8.466667 -8.466666 c 0,0 0,0 0,-8.466666 C 0,8.4666657 8.466666,0 16.933332,0 Z"
       sodipodi:nodetypes="zccczzccczzccczzccczz" />
    <g
       id="g11743"
       transform="matrix(1.3158331,0,0,1.3158331,-26.514978,-178.01386)"
       style="fill:#ffffff;fill-opacity:1">
      <path
         style="fill:#ffffff;fill-opacity:1;stroke-width:0.0446951"
         d="m 47.173423,163.58673 -0.6515,-0.90507 0.193469,-0.26818 c 0.10641,-0.14749 0.640651,-0.89166 1.18721,-1.65371 9.29015,-12.9531 13.10755,-18.23247 13.3889,-18.51652 0.288731,-0.29151 0.53673,-0.40961 0.86237,-0.41069 0.266221,-8.9e-4 0.334901,0.0324 0.75981,0.36831 0.313821,0.24808 0.445561,0.47598 0.44524,0.77026 -3.8e-4,0.31752 -0.12514,0.5543 -0.50107,0.95079 -0.79701,0.84057 -3.854149,5.03305 -13.573609,18.61448 -0.76965,1.07547 -1.41286,1.9554 -1.42934,1.9554 -0.0165,0 -0.32315,-0.40728 -0.68148,-0.90507 z"
         id="path10076" />
      <path
         id="path10072"
         style="fill:#ffffff;fill-opacity:1;stroke-width:0.168926"
         d="m 111.92383,536.05664 c -0.99269,6.8e-4 -1.26301,0.13104 -2.86133,1.39453 -1.18609,0.93763 -1.68454,1.79987 -1.68359,2.91211 10e-4,1.19974 0.47422,2.09494 1.89453,3.59375 3.05874,3.22776 14.88255,19.4595 53.2539,73.09961 17.24444,24.1064 17.8728,24.97985 25.42188,35.38867 3.47024,4.78485 7.26058,10.03034 8.42187,11.65625 6.09876,8.53864 9.33351,11.885 13.69532,14.16602 2.64298,1.38217 5.42693,2.17398 9.30468,2.64453 2.0998,0.25474 8.57339,0.29209 15.54102,0.0898 5.98809,-0.17382 7.64271,-0.43914 10.06641,-1.61133 1.19028,-0.57564 1.74347,-0.96719 2.46093,-1.74218 1.89676,-2.04881 2.42393,-4.40284 1.6543,-7.39063 -0.49164,-1.90862 -1.04086,-2.94026 -2.10352,-3.94531 -1.67206,-1.58135 -3.92765,-2.28526 -6.92187,-2.16016 -0.93154,0.0389 -5.53267,0.3159 -10.22461,0.61524 -7.643,0.48756 -8.79075,0.52416 -11.04297,0.35937 -3.07502,-0.22488 -5.26097,-0.65621 -7.72851,-1.52539 -4.37125,-1.53974 -7.46386,-4.00417 -11.23829,-8.95898 -3.20054,-4.20151 -15.23646,-20.82348 -31.56054,-43.58399 -5.09764,-7.10759 -10.68532,-14.8988 -12.41797,-17.31445 -25.6986,-35.82901 -39.73129,-55.19563 -40.65039,-56.10352 -1.1328,-1.11891 -2.09799,-1.58496 -3.28125,-1.58398 z m 128.30469,129.98438 c 2.05902,-0.0414 4.88128,0.97898 5.49023,2.23632 0.33222,0.68572 0.15847,1.15248 -0.57227,1.54102 -0.74902,0.39821 -3.39684,0.31512 -4.54687,-0.14258 -1.01552,-0.40437 -2.00321,-1.07459 -2.42383,-1.64258 -0.4605,-0.6218 -0.23713,-1.28591 0.56836,-1.68945 0.39158,-0.19622 0.90785,-0.29113 1.48438,-0.30273 z"
         transform="scale(0.26458332)" />
      <path
         id="path9908-6"
         style="fill:#ffffff;fill-opacity:1;stroke-width:0.168926"
         d="m 165.91406,628.65625 c -0.0251,0.0301 -1.43762,1.99412 -3.13867,4.36328 -9.84276,13.70873 -16.25125,22.37376 -18.15625,24.55274 -4.154,4.75147 -9.43124,7.09006 -17.22852,7.63476 -1.66178,0.11607 -16.05205,-0.6267 -18.53906,-0.95703 -0.82118,-0.10923 -2.24554,-0.1541 -3.20898,-0.10156 -4.15888,0.22696 -6.608164,1.91801 -7.660158,5.29101 -1.415358,4.53804 -0.0439,8.05113 3.884768,9.95117 2.36039,1.14157 4.17105,1.45473 9.30664,1.60743 2.32274,0.0695 6.92242,0.10263 10.2207,0.0762 6.48102,-0.0522 7.87329,-0.19626 11.40235,-1.18555 2.02862,-0.5687 5.23942,-2.17901 7.01757,-3.51953 2.98882,-2.25328 5.92494,-5.63186 10.66016,-12.26758 1.16024,-1.62591 4.64444,-6.45275 7.74414,-10.72656 8.23793,-11.35827 12.51243,-17.31639 12.61523,-17.58398 0.0794,-0.2069 -4.79822,-7.28028 -4.91992,-7.13477 z m -59.47656,37.46484 c 0.62651,-2.1e-4 1.18982,0.0925 1.60938,0.30274 0.80549,0.40354 1.02885,1.06764 0.56835,1.68945 -0.42062,0.56799 -1.4083,1.23821 -2.42382,1.64258 -1.15004,0.4577 -3.79785,0.54079 -4.54688,0.14258 -0.73073,-0.38854 -0.90448,-0.85335 -0.57226,-1.53906 0.59676,-1.2322 3.31865,-2.23759 5.36523,-2.23829 z"
         transform="scale(0.26458332)" />
    </g>
    <path
       id="path4990-3"
       style="fill:#ff700d;fill-opacity:1;stroke-width:0.103555"
       d="m 32.455296,20.725982 c -0.972463,0.0031 -3.402092,0.557794 -4.721677,1.093988 -0.845317,0.343485 -1.654055,0.753663 -2.421556,1.221632 1.14236,1.589669 2.187906,3.042306 3.508829,4.883938 0.603308,0.841132 2.548533,3.553587 4.323249,6.028057 0.211934,0.295498 0.364199,0.50541 0.53847,0.747239 l 0.179316,0.249593 0.256314,-0.357073 c 0.250018,-0.348017 0.71383,-0.994698 1.323951,-1.845365 2.711821,-3.781052 4.941298,-6.886196 6.972184,-9.71207 -1.229503,-0.746186 -2.560162,-1.335453 -3.964099,-1.735294 -1.110334,-0.31623 -2.864228,-0.613923 -3.347082,-0.567923 l -0.356568,0.03411 -0.05323,1.708941 c -0.0293,0.939768 -0.09098,1.786004 -0.136943,1.880505 -0.142697,0.293341 -0.641979,0.442629 -0.993219,0.29714 -0.166785,-0.06908 -0.34058,-0.202642 -0.38654,-0.29714 -0.04597,-0.09446 -0.107654,-0.940737 -0.136943,-1.880505 l -0.05323,-1.708941 -0.356568,-0.03411 c -0.05112,-0.0049 -0.109834,-0.0069 -0.174665,-0.0067 z m 14.124717,5.899896 c -2.027139,2.821201 -4.353409,6.065257 -7.169586,10.000424 -0.508495,0.710549 -0.973431,1.355518 -1.318268,1.827278 -0.172416,0.23586 -0.314222,0.428413 -0.419095,0.567923 -0.05243,0.06975 -0.09647,0.124166 -0.136424,0.174667 -0.01998,0.02519 -0.03683,0.04725 -0.06925,0.08475 -0.01622,0.01871 -0.03092,0.03943 -0.07958,0.08733 -0.02434,0.02397 -0.130466,0.112641 -0.13126,0.11317 -1.69e-4,2.01e-4 -0.04543,0.02876 -0.09043,0.05736 3.415125,4.739711 6.175931,8.550256 6.943246,9.557556 0.176025,0.231074 0.341948,0.439309 0.502296,0.631486 2.438278,-2.090211 4.248377,-4.852206 5.13457,-7.963854 0.316216,-1.11034 0.613883,-2.863707 0.567923,-3.346567 l -0.0341,-0.357084 -1.708423,-0.05323 c -0.939765,-0.02935 -1.786106,-0.09094 -1.880507,-0.136943 -0.292836,-0.14269 -0.443148,-0.64198 -0.297656,-0.993222 0.06908,-0.16678 0.203258,-0.340537 0.297656,-0.386538 0.09445,-0.04598 0.940742,-0.107643 1.880507,-0.136943 l 1.708423,-0.05323 0.0341,-0.356569 c 0.04595,-0.482859 -0.251707,-2.236226 -0.567923,-3.346566 -0.628822,-2.20795 -1.723382,-4.23732 -3.166216,-5.971211 z m -25.432554,0.0093 c -1.445285,1.73691 -2.53402,3.762092 -3.16053,5.961909 -0.316218,1.11034 -0.613884,2.863707 -0.567924,3.346566 l 0.03411,0.356568 1.70894,0.05323 c 0.939765,0.02934 1.785588,0.09104 1.879988,0.136943 0.292849,0.1427 0.443136,0.641979 0.297656,0.993219 -0.06908,0.16678 -0.203256,0.34064 -0.297656,0.38654 -0.09445,0.04599 -0.940223,0.107543 -1.879988,0.136943 l -1.70894,0.05323 -0.03411,0.357084 c -0.04595,0.482859 0.251706,2.236226 0.567924,3.346566 0.756974,2.657898 2.062435,4.889394 4.063834,6.946344 0.344375,0.353931 0.698707,0.686324 1.060917,1.002006 0.823405,-1.041998 2.980314,-3.951673 5.968628,-8.113714 0.296278,-0.412642 0.567436,-0.789729 0.765845,-1.06557 0.0992,-0.137919 0.180014,-0.250394 0.237193,-0.329695 0.02859,-0.0397 0.05064,-0.07125 0.06718,-0.09405 0.0083,-0.0114 0.015,-0.02043 0.02119,-0.02842 0.0062,-0.0084 -0.09642,0.110522 0.05994,-0.077 l 0.0016,-0.0021 0.265099,-0.31781 c -0.61056,-0.85326 -0.711763,-0.992759 -1.50538,-2.102168 -3.103249,-4.338095 -5.662578,-7.908501 -7.845516,-10.946619 z m 12.708785,17.739483 c -0.03737,0.05379 -0.06441,0.09413 -0.111623,0.161232 -0.194021,0.27599 -0.474564,0.66934 -0.843359,1.183391 -0.737584,1.0281 -1.827109,2.535796 -3.261815,4.513935 -0.686186,0.946097 -1.161465,1.60792 -1.712558,2.372465 0.959747,0.363781 1.970651,0.644737 3.040126,0.84336 0.541073,0.100459 1.21694,0.174014 1.501717,0.163814 l 0.517797,-0.01913 0.05323,-1.708426 c 0.0293,-0.939768 0.09098,-1.786104 0.136943,-1.880504 0.04595,-0.09446 0.219755,-0.228555 0.386541,-0.297657 0.351239,-0.145478 0.850521,0.0043 0.993219,0.297657 0.04598,0.09445 0.107654,0.940736 0.136943,1.880504 l 0.05323,1.708426 0.356569,0.0341 c 0.78305,0.07454 3.253234,-0.466309 4.69842,-1.014407 -0.598929,-0.830532 -1.147643,-1.592757 -1.953368,-2.703711 -1.5058,-2.076219 -2.525803,-3.491113 -3.992004,-5.535064 z"
       sodipodi:nodetypes="cscsscccccsccccsccccccssssccsccscscccssccccccsscccccscccccscsscccccccssscssccccccccccccscs" />
    <path
       id="path4988-3"
       style="fill:#ffffff;fill-opacity:1;stroke-width:0.103555"
       d="m 28.413683,7.4084476 -0.391192,0.2981722 c -0.492385,0.3755601 -0.717909,0.8951753 -0.650089,1.4965494 0.06175,0.5478568 0.327803,0.9384378 0.806153,1.1823568 0.296897,0.151392 0.644512,0.180734 2.1208,0.180869 1.234995,1.11e-4 1.802847,0.03762 1.889807,0.124539 0.08585,0.0858 0.124024,0.61341 0.124024,1.704806 0,1.827665 0.05959,1.726978 -1.087274,1.843299 -3.189803,0.32353 -6.923419,1.66702 -9.765811,3.449918 0.617738,0.856771 1.156274,1.601927 1.857251,2.57607 3.826233,-2.385909 8.419465,-3.493055 12.899988,-2.912483 2.363817,0.306293 4.697254,1.014048 6.647656,2.015898 0.534231,0.274415 1.050965,0.570174 1.551326,0.8847 0.68997,-0.958932 1.238015,-1.718177 1.836581,-2.548683 -1.401836,-0.870982 -3.01127,-1.693826 -4.306715,-2.168343 -1.699543,-0.622535 -3.837432,-1.129768 -5.49062,-1.302244 -1.088943,-0.113618 -1.035595,-0.01873 -1.035595,-1.838132 0,-1.091396 0.03818,-1.619007 0.124024,-1.704806 0.08692,-0.08693 0.655328,-0.124425 1.890323,-0.124539 1.476298,-1.35e-4 1.823384,-0.02948 2.120284,-0.180869 0.478358,-0.243919 0.744939,-0.6345 0.806669,-1.1823568 C 40.429054,8.6017951 40.20305,8.0821799 39.710665,7.7066198 L 39.319476,7.4084476 h -5.452898 z m 24.884783,9.9280764 c -0.1973,0.269126 -0.348538,0.471556 -0.562755,0.765328 -1.092264,1.497902 -2.498699,3.444013 -4.108278,5.678204 4.351041,4.786207 6.225542,11.472936 4.660699,18.008203 -0.942827,3.93755 -3.008466,7.372386 -5.83892,9.994222 0.737698,0.2565 1.332566,0.37524 2.307351,0.446484 0.471882,0.03453 0.813766,0.03687 1.651064,-0.0062 3.028386,-3.531058 4.958619,-7.960193 5.453411,-12.809037 0.153795,-1.507159 0.07722,-4.234913 -0.161229,-5.752102 -0.54079,-3.44089 -1.931315,-6.921023 -3.86643,-9.675894 -0.236683,-0.336931 -0.430464,-0.687263 -0.430464,-0.778764 0,-0.09148 0.399616,-0.56152 0.887799,-1.044382 1.091938,-1.080018 1.392531,-1.564148 1.464511,-2.357477 0.09741,-1.07428 -0.539517,-2.043901 -1.456759,-2.468584 z m -38.785227,0.124539 c -0.16231,0.107897 -0.321407,0.240112 -0.481108,0.400492 -0.563807,0.566211 -0.773895,1.066752 -0.770495,1.829864 0.0036,0.717949 0.343312,1.302946 1.35754,2.337323 1.052937,1.073852 1.032973,0.943912 0.299723,1.948204 -1.86982,2.561008 -3.349868,6.25207 -3.883484,9.684678 -0.239748,1.542399 -0.317,4.244782 -0.163814,5.745903 0.49202,4.821476 2.382517,9.238438 5.455997,12.808519 0.132051,0.0053 0.305139,0.01479 0.424781,0.01913 0.554251,0.02019 1.076227,0.01519 0.990637,0.02119 1.01515,-0.07092 1.843503,-0.220125 2.553849,-0.464571 -1.120832,-1.035407 -2.128107,-2.20149 -2.984314,-3.486092 -4.558686,-6.839611 -4.558686,-15.411237 0,-22.250838 0.537162,-0.805926 1.13416,-1.564714 1.780253,-2.274797 C 17.550723,21.63962 16.182418,19.745404 15.11837,18.284798 14.887656,17.9681 14.72475,17.749877 14.513239,17.461077 Z m 27.355953,37.977009 c -1.762951,0.774182 -3.659484,1.311765 -5.651852,1.569929 -3.524832,0.456737 -7.120186,-0.133514 -10.357507,-1.567346 -0.818898,1.072655 -1.507506,1.856256 -2.18643,2.476336 2.515486,1.231907 5.296981,2.013899 8.380883,2.360062 0.895019,0.10042 3.982206,0.03118 4.492233,-0.10077 0.206176,-0.05334 0.724696,-0.150624 1.151866,-0.216524 1.942391,-0.2994 4.225208,-1.023435 6.161381,-1.953884 0.06462,-0.03106 0.127481,-0.06453 0.19172,-0.09612 -0.680675,-0.624001 -1.380975,-1.428239 -2.182294,-2.471685 z"
       sodipodi:nodetypes="cccsssssccssccscscsscccccsscscccssssccsscccsccscccccscsccsscccscscss" />
    <g
       id="path10072-1-8"
       transform="matrix(0.34814749,0,0,0.34814749,-15.250454,-41.226027)"
       style="fill:#868584;stroke:#000000;stroke-width:2.01077" />
    <g
       id="path9908-6-3-6"
       transform="matrix(0.34814749,0,0,0.34814749,-15.250454,-41.226027)"
       style="fill:#868584;stroke:#000000;stroke-width:2.01077" />
  </g>
</svg>
