<?xml version="1.0" encoding="UTF-8" standalone="no"?>
<!-- Created with Inkscape (http://www.inkscape.org/) -->

<svg
   width="48"
   height="48"
   viewBox="0 0 12.7 12.7"
   version="1.1"
   id="svg5"
   inkscape:version="1.2.2 (732a01da63, 2022-12-09)"
   sodipodi:docname="clock.svg"
   inkscape:export-filename="clock.png"
   inkscape:export-xdpi="96"
   inkscape:export-ydpi="96"
   xmlns:inkscape="http://www.inkscape.org/namespaces/inkscape"
   xmlns:sodipodi="http://sodipodi.sourceforge.net/DTD/sodipodi-0.dtd"
   xmlns="http://www.w3.org/2000/svg"
   xmlns:svg="http://www.w3.org/2000/svg">
  <sodipodi:namedview
     id="namedview7"
     pagecolor="#ffffff"
     bordercolor="#666666"
     borderopacity="1.0"
     inkscape:pageshadow="2"
     inkscape:pageopacity="0.0"
     inkscape:pagecheckerboard="0"
     inkscape:document-units="px"
     showgrid="false"
     units="px"
     inkscape:zoom="16.771208"
     inkscape:cx="9.0929646"
     inkscape:cy="16.844344"
     inkscape:window-width="1920"
     inkscape:window-height="991"
     inkscape:window-x="-9"
     inkscape:window-y="-9"
     inkscape:window-maximized="1"
     inkscape:current-layer="layer1"
     inkscape:showpageshadow="2"
     inkscape:deskcolor="#d1d1d1" />
  <defs
     id="defs2" />
  <g
     inkscape:label="Ebene 1"
     inkscape:groupmode="layer"
     id="layer1">
    <g
       id="g855">
      <path
         style="fill:#e1e1e1;fill-opacity:1;stroke:none;stroke-width:0.0248172"
         d="M 5.9528455,11.087273 C 4.57233,10.950678 3.3629081,10.095183 2.7657235,8.8328343 2.5725382,8.4244723 2.4583487,8.0102789 2.4088095,7.5382191 L 2.3886255,7.345886 h 0.4261894 0.4261895 l 0.065427,-0.065427 c 0.084797,-0.084797 0.084797,-0.1814235 0,-0.2662209 L 3.2410044,6.9488111 H 2.8148149 2.3886255 L 2.4088095,6.756478 C 2.5558814,5.3550284 3.3985917,4.1619891 4.6644347,3.5631517 5.0727966,3.3699663 5.4869902,3.2557768 5.9590502,3.2062377 l 0.192333,-0.020184 V 3.612243 4.0384324 l 0.065427,0.065427 c 0.084797,0.084797 0.1814229,0.084797 0.2662203,0 l 0.065427,-0.065427 V 3.612243 3.1860536 l 0.192333,0.020184 c 0.9520307,0.099909 1.7812771,0.5001069 2.4408169,1.1779507 0.6450641,0.6629662 1.0124936,1.4486441 1.1094236,2.3722896 l 0.02018,0.1923331 H 9.8850261 9.4588364 l -0.065427,0.065427 c -0.038704,0.038705 -0.065427,0.093071 -0.065427,0.1331105 0,0.040039 0.026723,0.094405 0.065427,0.1331104 l 0.065427,0.065427 h 0.4261897 0.4261899 l -0.02018,0.1923331 c -0.147077,1.4014498 -0.9897869,2.594489 -2.25563,3.193326 -0.4083617,0.193186 -0.8225553,0.307375 -1.2946154,0.356914 l -0.192333,0.02018 V 10.68245 10.256261 l -0.065427,-0.06543 c -0.084583,-0.08458 -0.1814326,-0.08479 -0.2656593,-5.62e-4 -0.064279,0.06428 -0.064927,0.06871 -0.071632,0.490139 l -0.00676,0.425273 z M 6.5732746,7.6913186 C 6.6346972,7.6635147 6.7170763,7.6107134 6.7563384,7.573982 6.8443436,7.49165 6.9449649,7.2844816 6.9452903,7.1849493 6.9454661,7.1205557 7.086424,6.9697062 8.0233484,6.0309504 9.1902471,4.8617715 9.1601479,4.8991174 9.1177395,4.6730609 9.0948211,4.5508951 8.9463738,4.4024477 8.8242085,4.3795293 8.5981516,4.3371209 8.6354975,4.3070221 7.4663186,5.4739203 6.5275625,6.4108451 6.3767129,6.551768 6.3123199,6.5519787 c -0.040742,1.231e-4 -0.129915,0.02664 -0.1981631,0.058904 -0.4741863,0.2241721 -0.4741863,0.8487596 0,1.0729317 0.1534412,0.072539 0.3098008,0.075094 0.4591178,0.0075 z"
         id="path894"
         sodipodi:nodetypes="ssscccsscccssscccsscccssscccssscccssscccssccssscssssccsss" />
      <path
         style="fill:#e1e1e1;fill-opacity:1;stroke:none;stroke-width:0.0248172"
         d="M 5.8535767,12.678865 C 5.0401648,12.607426 4.1263941,12.30157 3.4237209,11.865547 1.4442456,10.637243 0.44018477,8.2882785 0.91896383,6.0057582 1.0740199,5.2665477 1.4044357,4.5152576 1.8357621,3.9211688 L 1.9528401,3.759911 1.7246601,3.5240939 C 1.4637572,3.2544587 1.4036603,3.1480689 1.4023038,2.9534261 1.4010507,2.7735372 1.4468571,2.6464159 1.5569953,2.524133 1.6780619,2.3897166 1.8312853,2.3239904 2.02032,2.3253868 c 0.2049167,0.00151 0.3239192,0.067239 0.5871488,0.3242854 L 2.8233577,2.8604894 2.9797266,2.7380081 C 3.7420657,2.1408802 4.7738899,1.7332343 5.7977381,1.6246878 L 5.9528455,1.6082436 V 1.2011968 0.79415011 H 5.5238033 c -0.3955787,0 -0.4376784,-0.004355 -0.5397735,-0.0558387 -0.119198,-0.060108 -0.222409,-0.21846195 -0.222409,-0.3412363 0,-0.12277427 0.103211,-0.28112823 0.222409,-0.34123622 C 5.0945086,1.2777444e-4 5.0976276,2.688305e-7 6.34992,2.688305e-7 c 1.2522932,0 1.2554123,1.231088595e-4 1.365891,0.0558386611695 0.1191984,0.06010799 0.2224094,0.21846195 0.2224094,0.34123622 0,0.12277435 -0.103211,0.28112831 -0.2224094,0.3412363 -0.102095,0.0514834 -0.1441947,0.0558387 -0.5397734,0.0558387 H 6.7469953 V 1.2016583 1.6091665 l 0.167516,0.01718 c 0.2473846,0.025371 0.6576079,0.1029301 0.9117943,0.1723896 0.6699215,0.1830641 1.3774193,0.5370715 1.9168314,0.959116 0.085016,0.066518 0.1624966,0.1209415 0.1721782,0.1209415 0.00968,0 0.1188068,-0.09901 0.2424998,-0.2200229 0.272377,-0.266473 0.389765,-0.3320299 0.596157,-0.3329298 0.359833,-0.00157 0.619095,0.2575025 0.616448,0.6159933 -0.0015,0.209088 -0.06748,0.3245457 -0.349989,0.6128199 l -0.236725,0.24156 0.165022,0.2455079 c 1.115999,1.6603064 1.259449,3.7794111 0.376265,5.5583399 -0.304109,0.6125441 -0.689516,1.1381501 -1.15807,1.5793401 -1.1572924,1.089707 -2.7348005,1.638102 -4.3133463,1.499463 z m 1.1346346,-0.805688 c 1.1002072,-0.160669 2.0278535,-0.632034 2.7888993,-1.41712 0.8678624,-0.8952775 1.3377084,-2.057403 1.3377084,-3.3087084 0,-1.620835 -0.807125,-3.1082438 -2.1715027,-4.0017485 C 7.8584432,2.4351379 6.4748016,2.2049407 5.1959213,2.5221441 3.4906384,2.9451091 2.147681,4.2880665 1.724716,5.9933496 1.4217728,7.2147366 1.6164591,8.5345625 2.2556686,9.5928063 c 0.6507681,1.0773797 1.7032765,1.8648857 2.9030272,2.1720977 0.5656535,0.144843 1.2868384,0.187524 1.8295155,0.108273 z"
         id="path892"
         sodipodi:nodetypes="sssscssssscsscccssssscssscccsssssscscsssssssssssss" />
    </g>
  </g>
</svg>
