<?xml version="1.0" encoding="UTF-8" standalone="no"?>
<!-- Created with Inkscape (http://www.inkscape.org/) -->

<svg
   width="48"
   height="48"
   viewBox="0 0 12.699999 12.7"
   version="1.1"
   id="svg5"
   inkscape:version="1.2.2 (732a01da63, 2022-12-09)"
   sodipodi:docname="settings.svg"
   inkscape:export-filename="settings.png"
   inkscape:export-xdpi="96.000008"
   inkscape:export-ydpi="96.000008"
   xmlns:inkscape="http://www.inkscape.org/namespaces/inkscape"
   xmlns:sodipodi="http://sodipodi.sourceforge.net/DTD/sodipodi-0.dtd"
   xmlns="http://www.w3.org/2000/svg"
   xmlns:svg="http://www.w3.org/2000/svg">
  <sodipodi:namedview
     id="namedview7"
     pagecolor="#ffffff"
     bordercolor="#666666"
     borderopacity="1.0"
     inkscape:pageshadow="2"
     inkscape:pageopacity="0.0"
     inkscape:pagecheckerboard="0"
     inkscape:document-units="px"
     showgrid="false"
     units="px"
     inkscape:snap-page="true"
     inkscape:snap-bbox="true"
     inkscape:bbox-paths="true"
     inkscape:bbox-nodes="true"
     inkscape:snap-bbox-edge-midpoints="true"
     inkscape:zoom="16"
     inkscape:cx="11.78125"
     inkscape:cy="20.28125"
     inkscape:window-width="1920"
     inkscape:window-height="991"
     inkscape:window-x="-9"
     inkscape:window-y="-9"
     inkscape:window-maximized="1"
     inkscape:current-layer="layer1"
     inkscape:showpageshadow="2"
     inkscape:deskcolor="#d1d1d1" />
  <defs
     id="defs2" />
  <g
     inkscape:label="Ebene 1"
     inkscape:groupmode="layer"
     id="layer1">
    <path
       style="fill:#e1e1e1;fill-opacity:1;stroke-width:0.0248375"
       d="M 5.5682072,12.671138 C 5.3590394,12.604308 5.1909941,12.460399 5.089312,12.261029 c -0.02892,-0.05668 -0.079905,-0.282771 -0.1245002,-0.55202 -0.04155,-0.250803 -0.08058,-0.478364 -0.086745,-0.505688 -0.00795,-0.03549 -0.05937,-0.06653 -0.1798683,-0.108645 -0.09276,-0.03243 -0.2821565,-0.10926 -0.4208663,-0.170723 L 4.0251324,10.812188 3.6377223,11.089937 C 3.1539881,11.436748 3.0728769,11.475429 2.8283886,11.475889 2.5137316,11.476447 2.4283125,11.421589 1.8705651,10.860341 1.3328983,10.319301 1.2830712,10.244603 1.2679572,9.9569359 1.2543072,9.6965955 1.2987972,9.5946404 1.6240592,9.1415167 1.780973,8.9229169 1.9093942,8.7362986 1.9094392,8.7268081 1.9094842,8.717358 1.8693591,8.6223029 1.820279,8.5156602 1.771199,8.4090251 1.6924039,8.2215338 1.6452003,8.0990286 1.5979952,7.9765234 1.5560101,7.8729303 1.5519001,7.8688233 1.5478501,7.8647733 1.3226578,7.8226682 1.0515954,7.7753731 0.49973109,7.679103 0.3568108,7.6258229 0.20780207,7.4608422 0.01751329,7.2501578 0.01064177,7.2156068 0.00207076,6.4264841 -0.00677925,5.6120504 0.00552077,5.5358877 0.17943553,5.3224089 0.34199977,5.1229341 0.47079154,5.070131 1.0154903,4.9796404 c 0.2526889,-0.041985 0.4754032,-0.084795 0.4949213,-0.095145 0.019515,-0.01035 0.060435,-0.092805 0.09093,-0.1832358 0.030495,-0.090435 0.1074302,-0.2809204 0.1709778,-0.4233111 L 1.8878496,4.0190555 1.6030922,3.6189554 C 1.2701097,3.1510957 1.2258896,3.053828 1.2283421,2.7946501 1.2311921,2.4997542 1.2845022,2.4187105 1.8437496,1.8600992 2.117836,1.5863248 2.3629784,1.363012 2.4224265,1.3329504 c 0.2076003,-0.1049701 0.5224102,-0.1097102 0.715435,-0.0108 0.041505,0.02127 0.2465779,0.1619117 0.4557292,0.312527 L 3.9738638,1.9085238 4.1523611,1.8267287 C 4.2505362,1.7817436 4.441374,1.7019585 4.5764507,1.6494239 4.7115259,1.5968938 4.8275751,1.5483837 4.8343341,1.5416187 4.8410841,1.5348687 4.8840592,1.3101939 4.9298242,1.0423685 4.9755893,0.77454307 5.0342844,0.50732367 5.0602794,0.44854908 5.1289345,0.29331534 5.2712607,0.14799962 5.431992,0.069047 L 5.5725722,1.9038591e-6 H 6.3300163 7.0874605 L 7.2280407,0.069047 c 0.1606142,0.07890012 0.303056,0.22425034 0.3715626,0.37916308 0.025905,0.0585901 0.081105,0.31147097 0.1226701,0.56196232 0.041565,0.2504899 0.083625,0.4706917 0.09348,0.4893368 0.0099,0.018645 0.1182302,0.06981 0.2408343,0.1137001 0.1226102,0.04389 0.320312,0.1255352 0.4393417,0.1814358 L 8.7123514,1.8962853 9.079534,1.6333109 C 9.5920803,1.2662288 9.6431013,1.2420473 9.9050662,1.2420473 c 0.3207338,0 0.3698448,0.031725 0.9597488,0.6199959 0.453286,0.4520287 0.50434,0.5115638 0.554734,0.6468925 0.06819,0.1830903 0.06391,0.4663327 -0.0093,0.6166209 -0.02544,0.05223 -0.167526,0.2638249 -0.315746,0.4702147 -0.148215,0.2063898 -0.269489,0.3902991 -0.269489,0.4086891 0,0.01839 0.03816,0.1092302 0.08481,0.2018733 0.04664,0.09264 0.12105,0.2722625 0.165345,0.3991551 0.05695,0.1631643 0.09576,0.2372329 0.132495,0.2529739 0.02858,0.0123 0.252093,0.05547 0.496705,0.09606 0.50167,0.08325 0.649651,0.1395152 0.797538,0.3032464 0.05057,0.055995 0.11583,0.1534653 0.14502,0.2166199 0.05055,0.1093501 0.05309,0.1509737 0.05309,0.8724733 0,0.7214981 -0.0026,0.7631261 -0.05309,0.8724733 -0.02919,0.06315 -0.09445,0.1606322 -0.14502,0.2166183 -0.148995,0.1649613 -0.289223,0.2168793 -0.839538,0.310826 -0.270206,0.046125 -0.494688,0.08817 -0.498849,0.09342 -0.0042,0.00525 -0.04701,0.1157402 -0.09524,0.2455339 -0.04821,0.1297952 -0.127245,0.3210245 -0.175641,0.4249581 l -0.08798,0.1889688 0.295863,0.4161396 c 0.332608,0.4678193 0.384641,0.5884434 0.364124,0.8441143 -0.02102,0.2618454 -0.09639,0.3710894 -0.611563,0.8864074 -0.564215,0.564367 -0.628458,0.604877 -0.9593588,0.604952 -0.2706694,5e-5 -0.2764519,-0.0027 -0.8039397,-0.380202 L 8.7080344,10.797843 8.4813556,10.902768 c -0.1246802,0.05771 -0.3193595,0.137731 -0.4326352,0.17783 -0.1520642,0.05383 -0.2088048,0.08592 -0.2168448,0.122625 -0.006,0.02735 -0.04479,0.250939 -0.086235,0.496864 -0.084855,0.50356 -0.1401602,0.649249 -0.3019865,0.795487 -0.2120373,0.191614 -0.2424813,0.197504 -1.0515451,0.203399 -0.5440328,0.0039 -0.7455596,-0.0029 -0.8238972,-0.02788 z m 1.4065611,-0.741221 c 0.0126,-0.03073 0.06357,-0.301449 0.1133702,-0.601574 0.0498,-0.300126 0.1051951,-0.574024 0.1231052,-0.608662 0.0573,-0.110835 0.1225352,-0.148185 0.4372176,-0.25035 0.1695123,-0.05504 0.4654462,-0.177882 0.657634,-0.273005 0.1953348,-0.09668 0.3819381,-0.17295 0.4231402,-0.17295 0.1072501,0 0.1964943,0.05248 0.686986,0.404049 0.2427439,0.173985 0.4607917,0.316339 0.4845487,0.316339 0.055515,0 0.8497418,-0.7942321 0.8497418,-0.8497487 0,-0.023025 -0.150951,-0.2543494 -0.335448,-0.5140493 -0.343859,-0.4840222 -0.384743,-0.5548088 -0.384743,-0.666151 0,-0.035355 0.0776,-0.2218653 0.172434,-0.4144686 0.09483,-0.1926048 0.21824,-0.4910767 0.274226,-0.663271 0.14946,-0.4596727 0.11619,-0.4391151 0.919222,-0.5679848 0.266348,-0.042735 0.509414,-0.08811 0.540146,-0.1008152 0.0558,-0.02307 0.05587,-0.02403 0.05587,-0.6302679 v -0.607162 l -0.06829,-0.01365 c -0.03756,-0.0075 -0.308566,-0.054435 -0.602231,-0.1042351 -0.293666,-0.0498 -0.561901,-0.1048802 -0.59608,-0.1223702 C 10.615863,5.4334001 10.581198,5.371015 10.465789,5.02196 10.403509,4.8336017 10.280053,4.5361407 10.191437,4.360936 10.102817,4.1857297 10.030318,4.0138955 10.030318,3.9790819 c 0,-0.1110002 0.04292,-0.1848858 0.38507,-0.6629095 0.184317,-0.2575129 0.335121,-0.4887007 0.335121,-0.5137493 0,-0.05631 -0.7917757,-0.8523088 -0.8477813,-0.8523088 -0.022065,0 -0.2400948,0.1437153 -0.4845082,0.3193505 -0.5011583,0.3601476 -0.5704734,0.4010376 -0.6798115,0.4010376 -0.045465,0 -0.2230264,-0.07119 -0.4296232,-0.1722482 C 8.1151165,2.403514 7.8449061,2.2907274 7.7083189,2.2476083 7.3554569,2.1362181 7.2774943,2.0997081 7.2200307,2.0189899 7.1826506,1.9664899 7.1436956,1.7989546 7.0723105,1.383769 7.0189854,1.073615 6.9696353,0.7947001 6.9626453,0.76396055 l -0.01275,-0.0558901 H 6.3433949 c -0.3529716,0 -0.612547,0.00975 -0.620968,0.023415 -0.00795,0.0129 -0.0597,0.28951835 -0.1149901,0.61475185 C 5.5392017,1.747596 5.4913966,1.9626784 5.4586215,2.0157214 5.4017714,2.1077166 5.3410364,2.1384216 4.9765193,2.2593908 4.8262716,2.3092509 4.5636497,2.420314 4.3929149,2.5061967 4.2221787,2.5920868 4.0522044,2.6698724 4.0151919,2.6790674 3.9001717,2.7076425 3.775715,2.6413124 3.2851243,2.2899579 3.0241389,2.1030441 2.801375,1.9501143 2.7900935,1.9501143 c -0.035025,0 -0.8557678,0.8283043 -0.8557678,0.8636563 0,0.018375 0.1528352,0.2479549 0.3396335,0.5101943 C 2.4607575,3.5862043 2.6284893,3.8431337 2.6466948,3.8949183 2.6894598,4.0165535 2.6757798,4.065629 2.5032796,4.409368 2.4244245,4.5664873 2.3082493,4.8515372 2.2450992,5.0428115 2.125204,5.4059726 2.0618169,5.5084677 1.9378132,5.5397128 1.9017532,5.5488628 1.6237397,5.5992478 1.3200163,5.6518379 1.0162928,5.704413 0.75646547,5.7544381 0.74262045,5.7630031 c -0.01587,0.00975 -0.02517,0.2354523 -0.02517,0.6108099 0,0.5938029 1.395e-4,0.5953059 0.0558751,0.6186399 0.030735,0.0129 0.31743185,0.067635 0.63711085,0.1217102 0.7160471,0.1211252 0.6891762,0.1028702 0.8453668,0.5742159 0.056595,0.1707813 0.1817523,0.4689802 0.2781334,0.662662 0.1584018,0.31832 0.1736073,0.3617885 0.1582878,0.4524877 C 2.6797744,8.8773737 2.5905542,9.0224105 2.3544808,9.35272 2.1780446,9.5995874 2.0153333,9.8295887 1.9929038,9.8638308 l -0.040785,0.062265 0.4185397,0.4212832 c 0.2301963,0.231705 0.4368561,0.421283 0.4592452,0.421283 0.022395,0 0.2072133,-0.11928 0.4107186,-0.265058 0.5684633,-0.407217 0.6488425,-0.45533 0.7607126,-0.45533 0.069315,0 0.1917288,0.04608 0.4245397,0.159797 0.1799237,0.08788 0.4658257,0.205151 0.6353364,0.260585 0.316649,0.103545 0.3798606,0.14013 0.4386802,0.253913 0.018705,0.0362 0.07401,0.310091 0.1228652,0.608662 0.04887,0.298569 0.099225,0.568004 0.1119151,0.598745 0.02301,0.05577 0.02433,0.05589 0.620146,0.05589 0.5958789,0 0.5971314,-9.3e-5 0.6199149,-0.05589 z M 5.8663731,9.0441905 C 4.7105614,8.8242422 3.8142921,7.8966558 3.6467163,6.7469746 3.6093962,6.4908852 3.6291963,5.9533234 3.6843364,5.725893 3.9391447,4.6749194 4.758404,3.8802873 5.8113471,3.6628199 6.0329784,3.6170399 6.123412,3.6113848 6.454191,3.6225749 c 0.277622,0.00945 0.4377262,0.02733 0.5743164,0.06432 0.9888645,0.2678419 1.7178656,0.997041 1.9856355,1.9861725 0.03699,0.1366202 0.054915,0.2967739 0.064305,0.5744708 0.01125,0.3308705 0.00555,0.4213267 -0.04023,0.643018 -0.2174328,1.0533391 -1.0077225,1.8687673 -2.0625151,2.1281192 -0.2236413,0.05499 -0.8756218,0.069975 -1.1093357,0.0255 z M 6.8391201,8.3076564 C 7.2426252,8.2116263 7.6624759,7.9489009 7.9191742,7.6318109 8.6762224,6.69666 8.4756001,5.3369709 7.4811856,4.6634114 6.7673705,4.1799127 5.8192206,4.2119363 5.121574,4.7431066 4.7789465,5.0039749 4.5026311,5.4274946 4.3912394,5.8625207 c -0.070155,0.273968 -0.07011,0.6951476 1.035e-4,0.9687975 0.2792764,1.0885246 1.3539216,1.7366816 2.4477802,1.4763412 z"
       id="path836" />
  </g>
</svg>
