<?xml version="1.0" encoding="UTF-8" standalone="no"?>
<!-- Created with Inkscape (http://www.inkscape.org/) -->

<svg
   width="48"
   height="48"
   viewBox="0 0 12.7 12.7"
   version="1.1"
   id="svg5"
   xml:space="preserve"
   inkscape:version="1.2.2 (732a01da63, 2022-12-09)"
   sodipodi:docname="speaker.svg"
   inkscape:export-filename="speaker.png"
   inkscape:export-xdpi="96"
   inkscape:export-ydpi="96"
   xmlns:inkscape="http://www.inkscape.org/namespaces/inkscape"
   xmlns:sodipodi="http://sodipodi.sourceforge.net/DTD/sodipodi-0.dtd"
   xmlns="http://www.w3.org/2000/svg"
   xmlns:svg="http://www.w3.org/2000/svg"><sodipodi:namedview
     id="namedview7"
     pagecolor="#ffffff"
     bordercolor="#000000"
     borderopacity="0.25"
     inkscape:showpageshadow="2"
     inkscape:pageopacity="0.0"
     inkscape:pagecheckerboard="0"
     inkscape:deskcolor="#d1d1d1"
     inkscape:document-units="px"
     showgrid="false"
     inkscape:zoom="8.1033961"
     inkscape:cx="-2.9000187"
     inkscape:cy="42.019419"
     inkscape:window-width="1920"
     inkscape:window-height="991"
     inkscape:window-x="-9"
     inkscape:window-y="-9"
     inkscape:window-maximized="1"
     inkscape:current-layer="layer1" /><defs
     id="defs2" /><g
     inkscape:label="Ebene 1"
     inkscape:groupmode="layer"
     id="layer1"><g
       id="g906"
       style="fill:#e1e1e1;fill-opacity:1;stroke:none"><path
         style="color:#000000;fill:#e1e1e1;stroke-linejoin:round;-inkscape-stroke:none;fill-opacity:1;stroke:none"
         d="M 6.7832031,1.4335937 A 0.45922592,0.45922592 0 0 0 6.2910156,1.5039062 L 3.2695313,4.1171875 H 0.45898438 A 0.45922592,0.45922592 0 0 0 0,4.5761719 V 8.0839844 A 0.45922592,0.45922592 0 0 0 0.45898438,8.5429688 H 3.2246094 L 6.2910156,11.195313 A 0.45922592,0.45922592 0 0 0 7.0507812,10.847656 V 1.8515625 A 0.45922592,0.45922592 0 0 0 6.7832031,1.4335937 Z M 6.1328125,2.8554688 V 9.84375 L 3.6972656,7.7363281 A 0.45922592,0.45922592 0 0 0 3.3964844,7.625 H 0.91796875 V 5.0351562 H 3.4414063 A 0.45922592,0.45922592 0 0 0 3.7421875,4.9238281 Z"
         id="path314" /><path
         style="color:#000000;fill:#e1e1e1;stroke-linecap:round;-inkscape-stroke:none;fill-opacity:1;stroke:none"
         d="m 10.720703,1.4375 a 0.45918,0.45918 0 0 0 -0.33789,0.099609 0.45918,0.45918 0 0 0 -0.07031,0.6445312 c 1.961005,2.4410186 1.961005,5.910544 0,8.3515624 a 0.45918,0.45918 0 0 0 0.07031,0.644531 0.45918,0.45918 0 0 0 0.646484,-0.07031 c 2.227613,-2.7728869 2.227613,-6.7271133 0,-9.5000001 A 0.45918,0.45918 0 0 0 10.720703,1.4375 Z M 9.546875,2.6347656 A 0.45918,0.45918 0 0 0 9.2050781,2.71875 0.45918,0.45918 0 0 0 9.1074219,3.3613281 c 1.3146761,1.7835801 1.3146761,4.2086074 0,5.9921875 a 0.45918,0.45918 0 0 0 0.097656,0.6425782 0.45918,0.45918 0 0 0 0.6425782,-0.097656 c 1.5512307,-2.1045067 1.5512307,-4.9775246 0,-7.0820312 A 0.45918,0.45918 0 0 0 9.546875,2.6347656 Z M 8.2675781,3.9433594 A 0.45918,0.45918 0 0 0 7.921875,4.0078125 0.45918,0.45918 0 0 0 7.7890625,4.6445312 c 0.6834111,1.0412213 0.6834111,2.38456 0,3.4257813 A 0.45918,0.45918 0 0 0 7.921875,8.7070313 0.45918,0.45918 0 0 0 8.5566406,8.5742188 c 0.8828663,-1.3451043 0.8828663,-3.0884895 0,-4.4335938 A 0.45918,0.45918 0 0 0 8.2675781,3.9433594 Z"
         id="path316" /></g></g></svg>
