<?xml version="1.0" encoding="UTF-8" standalone="no"?>
<!-- Created with Inkscape (http://www.inkscape.org/) -->

<svg
   width="48"
   height="48"
   viewBox="0 0 12.7 12.7"
   version="1.1"
   id="svg5"
   xml:space="preserve"
   inkscape:version="1.2.2 (732a01da63, 2022-12-09)"
   sodipodi:docname="video.svg"
   inkscape:export-filename="video.png"
   inkscape:export-xdpi="96"
   inkscape:export-ydpi="96"
   xmlns:inkscape="http://www.inkscape.org/namespaces/inkscape"
   xmlns:sodipodi="http://sodipodi.sourceforge.net/DTD/sodipodi-0.dtd"
   xmlns="http://www.w3.org/2000/svg"
   xmlns:svg="http://www.w3.org/2000/svg"><sodipodi:namedview
     id="namedview7"
     pagecolor="#ffffff"
     bordercolor="#000000"
     borderopacity="0.25"
     inkscape:showpageshadow="2"
     inkscape:pageopacity="0.0"
     inkscape:pagecheckerboard="0"
     inkscape:deskcolor="#d1d1d1"
     inkscape:document-units="px"
     showgrid="false"
     inkscape:zoom="5.7299663"
     inkscape:cx="35.340522"
     inkscape:cy="29.406805"
     inkscape:window-width="1920"
     inkscape:window-height="991"
     inkscape:window-x="-9"
     inkscape:window-y="-9"
     inkscape:window-maximized="1"
     inkscape:current-layer="layer1" /><defs
     id="defs2" /><g
     inkscape:label="Ebene 1"
     inkscape:groupmode="layer"
     id="layer1"><path
       style="fill:#e1e1e1;stroke-width:0.0199684;stroke:none;fill-opacity:1"
       d="M 0.76117205,11.490795 C 0.50012479,11.420587 0.24828232,11.222685 0.12555684,10.991309 -0.0090749,10.737486 1.3210487e-4,11.078133 1.3210487e-4,6.3505548 c 0,-4.7276047 -0.009195005,-4.3872499 0.12542473513,-4.640475 0.12614323,-0.2372727 0.35273021,-0.4162211 0.63200396,-0.4991282 0.098616,-0.029276 0.6051487,-0.032197 5.5819486,-0.032197 4.8504606,0 5.4868526,0.00348 5.5908766,0.030575 0.358296,0.093324 0.64571,0.3807398 0.739035,0.7390356 0.02699,0.1036403 0.03058,0.6187278 0.03058,4.3985104 0,3.8416214 -0.0032,4.2937194 -0.03163,4.4038164 -0.09285,0.360123 -0.379145,0.647624 -0.737979,0.741089 -0.104085,0.02711 -0.737451,0.03043 -5.5895083,0.02927 -4.7126582,-0.0011 -5.48705416,-0.0053 -5.5797054,-0.03025 z M 7.8476907,10.382915 V 9.8649836 H 7.338498 6.8293051 v 0.5058644 c 0,0.278225 0.00622,0.512098 0.013852,0.519716 0.00762,0.0076 0.2367547,0.01305 0.5091929,0.01207 l 0.4953417,-0.0018 z m 2.0567382,0.0013 V 9.8650126 H 9.3952367 8.8860438 v 0.5191774 0.519177 h 0.5091929 0.5091922 z m 2.0567401,0 V 9.8650376 h -0.509193 -0.509193 v 0.5191774 0.519177 h 0.509193 0.509193 z M 1.6774725,10.364196 V 9.8450186 H 1.1682803 0.65908728 v 0.5191774 0.519177 H 1.1682803 1.6774725 Z m 2.0567397,0.01 V 9.8649826 H 3.2250193 2.7158263 v 0.5091924 0.509193 h 0.509193 0.5091929 z m 2.056739,0 V 9.8649826 H 5.2817583 4.7725653 v 0.5091924 0.509193 h 0.509193 0.5091929 z M 12.001105,6.2307438 V 3.2754297 H 6.3500649 0.69902402 V 6.2307446 9.1860595 H 6.3500649 12.001105 Z M 6.1204292,8.3353301 C 5.6443765,8.2647851 5.2655373,8.0799799 4.9411346,7.7600382 4.6876894,7.5100775 4.5053531,7.1865857 4.4111741,6.8198095 4.3461191,6.56647 4.3449266,6.1392626 4.4085491,5.8858039 4.5334241,5.3884302 4.8371133,4.9582017 5.256022,4.6852123 5.4700113,4.5457618 5.6036995,4.4856536 5.8499687,4.4181623 6.0987737,4.3499763 6.5269014,4.3420643 6.7793686,4.4009863 7.545545,4.5798011 8.1131824,5.1474347 8.2996264,5.9212336 8.3468464,6.1172168 8.3481364,6.548172 8.3020964,6.761013 8.1394879,7.513406 7.5642387,8.1063236 6.8192738,8.2893844 6.6640651,8.3275219 6.2509742,8.3546794 6.1203819,8.3353294 Z M 6.8392891,6.9746972 C 7.3444883,6.6842988 7.7702299,6.4348135 7.7853822,6.4202853 c 0.01668,-0.01599 0.022778,-0.045427 0.015458,-0.074603 C 7.7872347,6.2914578 7.7855172,6.2904078 6.6307869,5.6239196 5.7870722,5.136947 5.7837407,5.135702 5.6586332,5.2608102 l -0.068422,0.068422 0.00555,1.0282431 0.00555,1.0282439 0.048817,0.051953 c 0.056018,0.05961 0.1482788,0.091261 0.220752,0.075725 0.027458,-0.00585 0.463266,-0.2482998 0.9684644,-0.5386982 z M 5.786296,2.331925 5.791621,1.8177401 H 5.2820905 4.7725601 v 0.5195197 0.5195198 l 0.5042009,-0.00533 0.504201,-0.00533 z m 2.0613947,0.005 V 1.817741 H 7.338498 6.8293051 V 2.3369179 2.8560948 H 7.338498 7.8476907 Z m 2.0567382,0.013313 c 0,-0.2782258 -0.00375,-0.509609 -0.00828,-0.5141849 -0.00457,-0.00457 -0.2336954,-0.00577 -0.5091929,-0.00266 l -0.5009024,0.00566 v 0.5085236 0.5085244 h 0.5091921 0.509193 z M 11.961169,2.346908 V 1.8377094 H 11.451976 10.942783 V 2.3469022 2.856095 h 0.509193 0.509193 z M 1.6774725,2.3269338 V 1.817741 H 1.1682803 0.65908728 V 2.3269338 2.8361266 H 1.1682803 1.6774725 Z m 2.0567397,0 V 1.8177408 H 3.2250193 2.7158263 v 0.5091928 0.5091927 h 0.509193 0.5091929 z"
       id="path302" /></g></svg>
